<?xml version="1.0" encoding="utf-8" standalone="no"?>
<!DOCTYPE svg PUBLIC "-//W3C//DTD SVG 1.1//EN"
  "http://www.w3.org/Graphics/SVG/1.1/DTD/svg11.dtd">
<svg xmlns:xlink="http://www.w3.org/1999/xlink" width="511.314937pt" height="228.280781pt" viewBox="0 0 511.314937 228.280781" xmlns="http://www.w3.org/2000/svg" version="1.1">
 <metadata>
  <rdf:RDF xmlns:dc="http://purl.org/dc/elements/1.1/" xmlns:cc="http://creativecommons.org/ns#" xmlns:rdf="http://www.w3.org/1999/02/22-rdf-syntax-ns#">
   <cc:Work>
    <dc:type rdf:resource="http://purl.org/dc/dcmitype/StillImage"/>
    <dc:date>2026-07-15T12:15:45.709524</dc:date>
    <dc:format>image/svg+xml</dc:format>
    <dc:creator>
     <cc:Agent>
      <dc:title>Matplotlib v3.11.0, https://matplotlib.org/</dc:title>
     </cc:Agent>
    </dc:creator>
   </cc:Work>
  </rdf:RDF>
 </metadata>
 <defs>
  <style type="text/css">*{stroke-linejoin: round; stroke-linecap: butt}</style>
 </defs>
 <g id="figure_1">
  <g id="patch_1">
   <path d="M 0 228.280781 
L 511.314937 228.280781 
L 511.314937 0 
L 0 0 
z
" style="fill: #ffffff"/>
  </g>
  <g id="axes_1">
   <g id="patch_2">
    <path d="M 38.622969 194.4 
L 459.966969 194.4 
L 459.966969 2.88 
L 38.622969 2.88 
z
" style="fill: #ffffff"/>
   </g>
   <g id="matplotlib.axis_1">
    <g id="xtick_1">
     <g id="line2d_1">
      <path d="M 105.335769 194.4 
L 105.335769 2.88 
" clip-path="url(#p6172967356)" style="fill: none; stroke: #b0b0b0; stroke-opacity: 0.22; stroke-width: 0.8; stroke-linecap: square"/>
     </g>
     <g id="line2d_2">
      <defs>
       <path id="m4eababefd9" d="M 0 0 
L 0 3.5 
" style="stroke: #000000; stroke-width: 0.8"/>
      </defs>
      <g>
       <use xlink:href="#m4eababefd9" x="105.335769" y="194.4" style="stroke: #000000; stroke-width: 0.8"/>
      </g>
     </g>
     <g id="text_1">
      <text style="font-size: 10px; font-family: 'Times New Roman', 'Times', 'DejaVu Serif', serif; text-anchor: middle" x="105.335769" y="208.997656" transform="rotate(-0 105.335769 208.997656)">12.46</text>
     </g>
    </g>
    <g id="xtick_2">
     <g id="line2d_3">
      <path d="M 175.559769 194.4 
L 175.559769 2.88 
" clip-path="url(#p6172967356)" style="fill: none; stroke: #b0b0b0; stroke-opacity: 0.22; stroke-width: 0.8; stroke-linecap: square"/>
     </g>
     <g id="line2d_4">
      <g>
       <use xlink:href="#m4eababefd9" x="175.559769" y="194.4" style="stroke: #000000; stroke-width: 0.8"/>
      </g>
     </g>
     <g id="text_2">
      <text style="font-size: 10px; font-family: 'Times New Roman', 'Times', 'DejaVu Serif', serif; text-anchor: middle" x="175.559769" y="208.997656" transform="rotate(-0 175.559769 208.997656)">12.48</text>
     </g>
    </g>
    <g id="xtick_3">
     <g id="line2d_5">
      <path d="M 245.783769 194.4 
L 245.783769 2.88 
" clip-path="url(#p6172967356)" style="fill: none; stroke: #b0b0b0; stroke-opacity: 0.22; stroke-width: 0.8; stroke-linecap: square"/>
     </g>
     <g id="line2d_6">
      <g>
       <use xlink:href="#m4eababefd9" x="245.783769" y="194.4" style="stroke: #000000; stroke-width: 0.8"/>
      </g>
     </g>
     <g id="text_3">
      <text style="font-size: 10px; font-family: 'Times New Roman', 'Times', 'DejaVu Serif', serif; text-anchor: middle" x="245.783769" y="208.997656" transform="rotate(-0 245.783769 208.997656)">12.50</text>
     </g>
    </g>
    <g id="xtick_4">
     <g id="line2d_7">
      <path d="M 316.007769 194.4 
L 316.007769 2.88 
" clip-path="url(#p6172967356)" style="fill: none; stroke: #b0b0b0; stroke-opacity: 0.22; stroke-width: 0.8; stroke-linecap: square"/>
     </g>
     <g id="line2d_8">
      <g>
       <use xlink:href="#m4eababefd9" x="316.007769" y="194.4" style="stroke: #000000; stroke-width: 0.8"/>
      </g>
     </g>
     <g id="text_4">
      <text style="font-size: 10px; font-family: 'Times New Roman', 'Times', 'DejaVu Serif', serif; text-anchor: middle" x="316.007769" y="208.997656" transform="rotate(-0 316.007769 208.997656)">12.52</text>
     </g>
    </g>
    <g id="xtick_5">
     <g id="line2d_9">
      <path d="M 386.231769 194.4 
L 386.231769 2.88 
" clip-path="url(#p6172967356)" style="fill: none; stroke: #b0b0b0; stroke-opacity: 0.22; stroke-width: 0.8; stroke-linecap: square"/>
     </g>
     <g id="line2d_10">
      <g>
       <use xlink:href="#m4eababefd9" x="386.231769" y="194.4" style="stroke: #000000; stroke-width: 0.8"/>
      </g>
     </g>
     <g id="text_5">
      <text style="font-size: 10px; font-family: 'Times New Roman', 'Times', 'DejaVu Serif', serif; text-anchor: middle" x="386.231769" y="208.997656" transform="rotate(-0 386.231769 208.997656)">12.54</text>
     </g>
    </g>
    <g id="xtick_6">
     <g id="line2d_11">
      <path d="M 456.455769 194.4 
L 456.455769 2.88 
" clip-path="url(#p6172967356)" style="fill: none; stroke: #b0b0b0; stroke-opacity: 0.22; stroke-width: 0.8; stroke-linecap: square"/>
     </g>
     <g id="line2d_12">
      <g>
       <use xlink:href="#m4eababefd9" x="456.455769" y="194.4" style="stroke: #000000; stroke-width: 0.8"/>
      </g>
     </g>
     <g id="text_6">
      <text style="font-size: 10px; font-family: 'Times New Roman', 'Times', 'DejaVu Serif', serif; text-anchor: middle" x="456.455769" y="208.997656" transform="rotate(-0 456.455769 208.997656)">12.56</text>
     </g>
    </g>
    <g id="text_7">
     <text style="font-size: 10px; font-family: 'Times New Roman', 'Times', 'DejaVu Serif', serif; text-anchor: middle" x="249.294969" y="222.998437" transform="rotate(-0 249.294969 222.998437)">Time (ns)</text>
    </g>
   </g>
   <g id="matplotlib.axis_2">
    <g id="ytick_1">
     <g id="line2d_13">
      <path d="M 38.622969 188.687855 
L 459.966969 188.687855 
" clip-path="url(#p6172967356)" style="fill: none; stroke: #b0b0b0; stroke-opacity: 0.22; stroke-width: 0.8; stroke-linecap: square"/>
     </g>
     <g id="line2d_14">
      <defs>
       <path id="m947f54538a" d="M 0 0 
L -3.5 0 
" style="stroke: #000000; stroke-width: 0.8"/>
      </defs>
      <g>
       <use xlink:href="#m947f54538a" x="38.622969" y="188.687855" style="stroke: #000000; stroke-width: 0.8"/>
      </g>
     </g>
     <g id="text_8">
      <text style="font-size: 10px; font-family: 'Times New Roman', 'Times', 'DejaVu Serif', serif; text-anchor: end" x="31.622969" y="192.486683" transform="rotate(-0 31.622969 192.486683)">−3</text>
     </g>
    </g>
    <g id="ytick_2">
     <g id="line2d_15">
      <path d="M 38.622969 158.671903 
L 459.966969 158.671903 
" clip-path="url(#p6172967356)" style="fill: none; stroke: #b0b0b0; stroke-opacity: 0.22; stroke-width: 0.8; stroke-linecap: square"/>
     </g>
     <g id="line2d_16">
      <g>
       <use xlink:href="#m947f54538a" x="38.622969" y="158.671903" style="stroke: #000000; stroke-width: 0.8"/>
      </g>
     </g>
     <g id="text_9">
      <text style="font-size: 10px; font-family: 'Times New Roman', 'Times', 'DejaVu Serif', serif; text-anchor: end" x="31.622969" y="162.470731" transform="rotate(-0 31.622969 162.470731)">−2</text>
     </g>
    </g>
    <g id="ytick_3">
     <g id="line2d_17">
      <path d="M 38.622969 128.655952 
L 459.966969 128.655952 
" clip-path="url(#p6172967356)" style="fill: none; stroke: #b0b0b0; stroke-opacity: 0.22; stroke-width: 0.8; stroke-linecap: square"/>
     </g>
     <g id="line2d_18">
      <g>
       <use xlink:href="#m947f54538a" x="38.622969" y="128.655952" style="stroke: #000000; stroke-width: 0.8"/>
      </g>
     </g>
     <g id="text_10">
      <text style="font-size: 10px; font-family: 'Times New Roman', 'Times', 'DejaVu Serif', serif; text-anchor: end" x="31.622969" y="132.45478" transform="rotate(-0 31.622969 132.45478)">−1</text>
     </g>
    </g>
    <g id="ytick_4">
     <g id="line2d_19">
      <path d="M 38.622969 98.64 
L 459.966969 98.64 
" clip-path="url(#p6172967356)" style="fill: none; stroke: #b0b0b0; stroke-opacity: 0.22; stroke-width: 0.8; stroke-linecap: square"/>
     </g>
     <g id="line2d_20">
      <g>
       <use xlink:href="#m947f54538a" x="38.622969" y="98.64" style="stroke: #000000; stroke-width: 0.8"/>
      </g>
     </g>
     <g id="text_11">
      <text style="font-size: 10px; font-family: 'Times New Roman', 'Times', 'DejaVu Serif', serif; text-anchor: end" x="31.622969" y="102.438828" transform="rotate(-0 31.622969 102.438828)">0</text>
     </g>
    </g>
    <g id="ytick_5">
     <g id="line2d_21">
      <path d="M 38.622969 68.624048 
L 459.966969 68.624048 
" clip-path="url(#p6172967356)" style="fill: none; stroke: #b0b0b0; stroke-opacity: 0.22; stroke-width: 0.8; stroke-linecap: square"/>
     </g>
     <g id="line2d_22">
      <g>
       <use xlink:href="#m947f54538a" x="38.622969" y="68.624048" style="stroke: #000000; stroke-width: 0.8"/>
      </g>
     </g>
     <g id="text_12">
      <text style="font-size: 10px; font-family: 'Times New Roman', 'Times', 'DejaVu Serif', serif; text-anchor: end" x="31.622969" y="72.422877" transform="rotate(-0 31.622969 72.422877)">1</text>
     </g>
    </g>
    <g id="ytick_6">
     <g id="line2d_23">
      <path d="M 38.622969 38.608097 
L 459.966969 38.608097 
" clip-path="url(#p6172967356)" style="fill: none; stroke: #b0b0b0; stroke-opacity: 0.22; stroke-width: 0.8; stroke-linecap: square"/>
     </g>
     <g id="line2d_24">
      <g>
       <use xlink:href="#m947f54538a" x="38.622969" y="38.608097" style="stroke: #000000; stroke-width: 0.8"/>
      </g>
     </g>
     <g id="text_13">
      <text style="font-size: 10px; font-family: 'Times New Roman', 'Times', 'DejaVu Serif', serif; text-anchor: end" x="31.622969" y="42.406925" transform="rotate(-0 31.622969 42.406925)">2</text>
     </g>
    </g>
    <g id="ytick_7">
     <g id="line2d_25">
      <path d="M 38.622969 8.592145 
L 459.966969 8.592145 
" clip-path="url(#p6172967356)" style="fill: none; stroke: #b0b0b0; stroke-opacity: 0.22; stroke-width: 0.8; stroke-linecap: square"/>
     </g>
     <g id="line2d_26">
      <g>
       <use xlink:href="#m947f54538a" x="38.622969" y="8.592145" style="stroke: #000000; stroke-width: 0.8"/>
      </g>
     </g>
     <g id="text_14">
      <text style="font-size: 10px; font-family: 'Times New Roman', 'Times', 'DejaVu Serif', serif; text-anchor: end" x="31.622969" y="12.390973" transform="rotate(-0 31.622969 12.390973)">3</text>
     </g>
    </g>
    <g id="text_15">
     <text style="font-size: 10px; font-family: 'Times New Roman', 'Times', 'DejaVu Serif', serif; text-anchor: middle" x="10.478437" y="98.64" transform="rotate(-90 10.478437 98.64)">Amplitude (useful)</text>
    </g>
   </g>
   <g id="line2d_27">
    <path d="M 38.622969 19.170402 
L 39.128683 20.425406 
L 39.718682 22.533647 
L 40.477253 26.222885 
L 41.32011 31.552426 
L 42.331538 39.529352 
L 43.511537 50.752918 
L 44.944393 66.605382 
L 47.051534 92.669196 
L 50.507246 135.395977 
L 52.024388 151.345409 
L 53.204387 161.655037 
L 54.215815 168.726974 
L 55.058672 173.23662 
L 55.817243 176.149891 
L 56.407242 177.638606 
L 56.912956 178.363422 
L 57.334385 178.57591 
L 57.671527 178.489387 
L 58.00867 178.175533 
L 58.430098 177.465643 
L 58.935812 176.15361 
L 59.525812 174.001553 
L 60.284383 170.285633 
L 61.127239 164.973827 
L 62.138667 157.099359 
L 63.318666 146.122914 
L 64.835808 129.814102 
L 67.280092 100.72562 
L 69.977233 69.305018 
L 71.494375 54.029092 
L 72.75866 43.432802 
L 73.770088 36.645243 
L 74.69723 31.890309 
L 75.455801 29.10697 
L 76.045801 27.652719 
L 76.551514 26.907741 
L 76.972943 26.641717 
L 77.310085 26.660559 
L 77.647228 26.884101 
L 78.068656 27.448631 
L 78.57437 28.537739 
L 79.16437 30.36185 
L 79.922941 33.547895 
L 80.765797 38.128973 
L 81.777225 44.935016 
L 83.04151 55.15048 
L 84.642938 70.127872 
L 87.930078 103.740249 
L 89.952934 123.087094 
L 91.38579 134.842659 
L 92.565789 142.850186 
L 93.577217 148.312791 
L 94.420074 151.792605 
L 95.178645 154.053891 
L 95.768644 155.231415 
L 96.274358 155.834005 
L 96.695787 156.050495 
L 97.117215 156.009693 
L 97.538643 155.715113 
L 98.044357 155.033298 
L 98.634357 153.798329 
L 99.308642 151.83227 
L 100.151498 148.596457 
L 101.162926 143.684212 
L 102.342926 136.749112 
L 103.860067 126.396651 
L 106.557208 106.068961 
L 109.001492 88.334721 
L 110.518634 78.858773 
L 111.782919 72.292951 
L 112.878633 67.750528 
L 113.805775 64.808166 
L 114.564346 63.037009 
L 115.238631 61.947546 
L 115.828631 61.366029 
L 116.334345 61.139162 
L 116.840059 61.157071 
L 117.345773 61.412428 
L 117.935772 61.998509 
L 118.610057 63.027753 
L 119.368628 64.609375 
L 120.295771 67.085965 
L 121.47577 70.961114 
L 122.992912 76.813709 
L 126.364338 91.098751 
L 128.302908 98.668925 
L 129.735764 103.427669 
L 131.000049 106.866288 
L 132.095763 109.210673 
L 133.022905 110.720361 
L 133.865761 111.720993 
L 134.708618 112.382393 
L 135.467189 112.706281 
L 136.22576 112.795326 
L 137.068616 112.650027 
L 137.995759 112.239273 
L 139.091472 111.491677 
L 140.6929 110.086086 
L 143.727183 107.377219 
L 144.991468 106.553464 
L 146.087182 106.080207 
L 147.098609 105.864331 
L 148.110037 105.862954 
L 149.205751 106.08695 
L 150.470036 106.587162 
L 152.32432 107.602256 
L 154.515747 108.754882 
L 155.695747 109.114537 
L 156.622889 109.171262 
L 157.465745 109.003197 
L 158.308602 108.590985 
L 159.151458 107.906464 
L 159.994315 106.928201 
L 160.921457 105.496719 
L 161.932885 103.503972 
L 163.028599 100.849767 
L 164.292884 97.198706 
L 165.894311 91.832855 
L 168.507166 82.125162 
L 170.782879 74.000109 
L 172.13145 69.948367 
L 173.227163 67.332042 
L 174.07002 65.832928 
L 174.828591 64.920576 
L 175.41859 64.522665 
L 175.924304 64.411595 
L 176.430018 64.521456 
L 176.935732 64.858883 
L 177.525732 65.54683 
L 178.200017 66.727201 
L 178.958588 68.560358 
L 179.801444 71.218299 
L 180.812872 75.241812 
L 181.908586 80.557184 
L 183.257156 88.29135 
L 184.94287 99.371805 
L 190.590009 137.795247 
L 191.854293 144.29705 
L 192.865721 148.394044 
L 193.708578 150.938041 
L 194.382863 152.350146 
L 194.972863 153.104807 
L 195.478577 153.38121 
L 195.900005 153.344196 
L 196.321433 153.060552 
L 196.827147 152.391678 
L 197.417147 151.15679 
L 198.091432 149.148891 
L 198.850003 146.142344 
L 199.777145 141.431914 
L 200.788573 135.078382 
L 201.968572 126.239904 
L 203.485714 113.048585 
L 205.677141 91.757552 
L 208.879996 60.77979 
L 210.397138 48.28162 
L 211.577137 40.278084 
L 212.588565 34.892729 
L 213.431422 31.578152 
L 214.105707 29.752619 
L 214.695706 28.78484 
L 215.117135 28.462509 
L 215.454277 28.42913 
L 215.79142 28.596752 
L 216.212848 29.089964 
L 216.718562 30.097783 
L 217.308562 31.843355 
L 217.982847 34.577423 
L 218.825704 39.068182 
L 219.752846 45.309303 
L 220.848559 54.28179 
L 222.19713 67.339864 
L 223.967129 86.930879 
L 229.19284 146.461998 
L 230.54141 158.584285 
L 231.637124 166.546684 
L 232.564266 171.74808 
L 233.322837 174.860562 
L 233.997122 176.716797 
L 234.502836 177.529635 
L 234.924264 177.821544 
L 235.261407 177.800941 
L 235.598549 177.553893 
L 236.019978 176.927021 
L 236.525692 175.710985 
L 237.115691 173.661203 
L 237.789977 170.506394 
L 238.632833 165.394964 
L 239.559975 158.372958 
L 240.739975 147.546938 
L 242.172831 132.07132 
L 244.111401 108.437858 
L 248.157112 58.530355 
L 249.589969 43.728753 
L 250.769968 33.630004 
L 251.781396 26.77426 
L 252.624252 22.469265 
L 253.298537 20.00394 
L 253.888537 18.584863 
L 254.394251 17.926561 
L 254.731394 17.776044 
L 255.068536 17.856592 
L 255.405679 18.167763 
L 255.827107 18.87926 
L 256.332821 20.201017 
L 256.922821 22.375944 
L 257.681392 26.140776 
L 258.524248 31.534197 
L 259.535676 39.546006 
L 260.715675 50.737376 
L 262.232817 67.404687 
L 264.677101 97.22813 
L 267.458528 130.505819 
L 268.97567 146.137982 
L 270.239955 156.948054 
L 271.251382 163.840329 
L 272.094239 168.260098 
L 272.85281 171.146522 
L 273.44281 172.653567 
L 273.948523 173.423439 
L 274.369952 173.695216 
L 274.707094 173.670864 
L 275.044237 173.432629 
L 275.465665 172.83659 
L 275.971379 171.690109 
L 276.561379 169.771786 
L 277.31995 166.421311 
L 278.162806 161.601026 
L 279.174234 154.432145 
L 280.354233 144.428446 
L 281.871375 129.575275 
L 284.484231 101.312228 
L 287.0128 74.774482 
L 288.529942 61.031653 
L 289.794227 51.517739 
L 290.805655 45.425361 
L 291.732797 41.148768 
L 292.491368 38.630357 
L 293.165653 37.152167 
L 293.671367 36.517163 
L 294.092796 36.297647 
L 294.514224 36.357579 
L 294.935652 36.693669 
L 295.441366 37.454992 
L 296.031366 38.823638 
L 296.705651 40.995912 
L 297.548507 44.56771 
L 298.559935 49.992309 
L 299.739935 57.662454 
L 301.257076 69.14267 
L 303.785646 90.364602 
L 306.398501 111.704612 
L 307.915643 122.402208 
L 309.179928 129.844238 
L 310.275642 135.00843 
L 311.202784 138.359522 
L 311.961355 140.376678 
L 312.63564 141.613731 
L 313.22564 142.267365 
L 313.731354 142.512685 
L 314.152782 142.498882 
L 314.658496 142.226458 
L 315.16421 141.683151 
L 315.754209 140.720882 
L 316.51278 138.994176 
L 317.355637 136.484173 
L 318.367065 132.753022 
L 319.63135 127.195506 
L 321.401348 118.296827 
L 325.868488 95.357234 
L 327.301344 89.29947 
L 328.565629 84.879594 
L 329.661343 81.841523 
L 330.588485 79.875154 
L 331.431342 78.572162 
L 332.189913 77.78691 
L 332.864198 77.38601 
L 333.538483 77.250774 
L 334.212768 77.364274 
L 334.887054 77.706581 
L 335.645624 78.337101 
L 336.572767 79.410891 
L 337.752766 81.156707 
L 339.438479 84.11246 
L 342.978477 90.414917 
L 344.411333 92.462388 
L 345.591332 93.793045 
L 346.687046 94.716586 
L 347.782759 95.343811 
L 348.878473 95.700978 
L 350.058472 95.836524 
L 351.575614 95.757043 
L 354.525612 95.533523 
L 355.621325 95.689988 
L 356.632753 96.055926 
L 357.559895 96.621762 
L 358.487038 97.438098 
L 359.498465 98.636333 
L 360.594179 100.306388 
L 361.774178 102.524068 
L 363.207034 105.733674 
L 365.061319 110.491768 
L 368.769888 120.128868 
L 370.034173 122.748565 
L 371.0456 124.363413 
L 371.888457 125.304153 
L 372.562742 125.754086 
L 373.152742 125.90693 
L 373.742742 125.820717 
L 374.332741 125.484071 
L 374.922741 124.888005 
L 375.597026 123.881018 
L 376.355597 122.326946 
L 377.198453 120.077699 
L 378.209881 116.670149 
L 379.305595 112.157466 
L 380.654165 105.567311 
L 382.339879 96.081453 
L 388.155589 62.105629 
L 389.335588 56.981553 
L 390.347016 53.547119 
L 391.189873 51.466685 
L 391.864158 50.363 
L 392.369872 49.881226 
L 392.875586 49.706937 
L 393.297014 49.802167 
L 393.718442 50.119601 
L 394.224156 50.79695 
L 394.814156 51.99803 
L 395.488441 53.910919 
L 396.247012 56.741225 
L 397.174154 61.142056 
L 398.185582 67.049534 
L 399.449867 75.875827 
L 400.967009 88.167918 
L 403.327007 109.444767 
L 406.19272 134.953407 
L 407.709861 146.519084 
L 408.889861 153.920722 
L 409.901288 158.888695 
L 410.744145 161.929846 
L 411.41843 163.586937 
L 411.924144 164.356479 
L 412.345572 164.679691 
L 412.682715 164.726927 
L 413.019858 164.5846 
L 413.441286 164.138684 
L 413.947 163.209831 
L 414.537 161.585532 
L 415.211285 159.025941 
L 415.969856 155.274232 
L 416.896998 149.495722 
L 417.992711 141.114157 
L 419.256996 129.640653 
L 420.942709 112.071873 
L 426.926991 47.33128 
L 428.191276 37.059403 
L 429.202704 30.5001 
L 430.04556 26.313601 
L 430.804131 23.619658 
L 431.394131 22.260945 
L 431.899845 21.62341 
L 432.236988 21.472448 
L 432.57413 21.542226 
L 432.911273 21.833285 
L 433.332701 22.508043 
L 433.838415 23.771356 
L 434.428415 25.862752 
L 435.186986 29.504532 
L 436.029842 34.753778 
L 437.04127 42.603022 
L 438.221269 53.64909 
L 439.654125 69.267888 
L 441.761267 95.000344 
L 445.216979 137.312883 
L 446.734121 153.129933 
L 447.91412 163.343777 
L 448.925548 170.329134 
L 449.768404 174.757171 
L 450.526975 177.585205 
L 451.116975 178.997459 
L 451.622689 179.648259 
L 451.959831 179.792542 
L 452.296974 179.704528 
L 452.634117 179.384452 
L 453.055545 178.659492 
L 453.561259 177.317667 
L 454.151258 175.113171 
L 454.909829 171.299249 
L 455.752686 165.834936 
L 456.764114 157.71321 
L 457.944113 146.357566 
L 459.461255 129.424265 
L 459.966969 123.348263 
L 459.966969 123.348263 
" clip-path="url(#p6172967356)" style="fill: none; stroke-dasharray: 5.18,2.24; stroke-dashoffset: 0; stroke: #1f4e79; stroke-width: 1.4"/>
   </g>
   <g id="line2d_28">
    <path d="M 38.622969 19.643564 
L 39.128683 20.986455 
L 39.718682 23.183777 
L 40.477253 26.964851 
L 41.32011 32.364196 
L 42.331538 40.377445 
L 43.511537 51.57645 
L 45.028679 68.287227 
L 47.304391 96.200483 
L 50.338675 133.047086 
L 51.855817 148.912432 
L 53.120102 159.911736 
L 54.13153 166.940752 
L 54.974386 171.457033 
L 55.732957 174.411444 
L 56.322957 175.955981 
L 56.828671 176.745476 
L 57.250099 177.023757 
L 57.587242 176.997613 
L 57.924384 176.75096 
L 58.345813 176.134521 
L 58.851526 174.948174 
L 59.441526 172.960736 
L 60.200097 169.483226 
L 61.042954 164.468294 
L 62.054381 156.987739 
L 63.234381 146.509827 
L 64.751522 130.874443 
L 67.111521 103.827298 
L 70.061519 70.558623 
L 71.578661 55.844964 
L 72.842946 45.635734 
L 73.854373 39.086128 
L 74.781516 34.483218 
L 75.540087 31.772421 
L 76.130086 30.340425 
L 76.6358 29.589964 
L 77.057228 29.301772 
L 77.394371 29.29128 
L 77.731514 29.475163 
L 78.152942 29.975649 
L 78.658656 30.966878 
L 79.248655 32.648366 
L 80.007226 35.607655 
L 80.850083 39.883011 
L 81.861511 46.255036 
L 83.04151 55.154804 
L 84.558652 68.370489 
L 87.171507 93.51304 
L 89.700077 117.150954 
L 91.217219 129.445712 
L 92.481504 138.0189 
L 93.577217 143.977843 
L 94.504359 147.845677 
L 95.26293 150.168917 
L 95.937216 151.584213 
L 96.527215 152.318319 
L 96.948643 152.555918 
L 97.370072 152.557105 
L 97.7915 152.325327 
L 98.297214 151.746072 
L 98.887214 150.667526 
L 99.561499 148.927087 
L 100.404355 146.039587 
L 101.331498 142.036471 
L 102.511497 135.871077 
L 104.028639 126.595771 
L 106.472923 109.962456 
L 109.254349 91.442726 
L 110.855777 82.256625 
L 112.120062 76.193376 
L 113.215775 71.935307 
L 114.142918 69.112695 
L 114.985774 67.188266 
L 115.744345 65.98186 
L 116.41863 65.322556 
L 117.00863 65.056974 
L 117.514344 65.053398 
L 118.020058 65.249063 
L 118.610057 65.717803 
L 119.284343 66.551631 
L 120.127199 68.002879 
L 121.054341 70.060958 
L 122.234341 73.254319 
L 123.835768 78.31754 
L 129.651478 97.406839 
L 131.084335 101.046214 
L 132.348619 103.684908 
L 133.528619 105.647414 
L 134.624332 107.051366 
L 135.720046 108.085436 
L 136.815759 108.797192 
L 137.911473 109.245411 
L 139.175758 109.521163 
L 141.030042 109.667278 
L 143.811469 109.893476 
L 145.412896 110.264477 
L 147.014324 110.874529 
L 149.03718 111.914306 
L 151.902892 113.390711 
L 153.167177 113.775463 
L 154.178605 113.85076 
L 155.021461 113.707842 
L 155.864318 113.342664 
L 156.707174 112.725542 
L 157.550031 111.831271 
L 158.477173 110.504252 
L 159.488601 108.627724 
L 160.584315 106.082817 
L 161.764314 102.763372 
L 163.112884 98.299715 
L 164.798597 91.911914 
L 170.782879 68.350888 
L 171.962878 64.984129 
L 172.890021 62.949556 
L 173.648591 61.74877 
L 174.322877 61.066968 
L 174.912876 60.788072 
L 175.41859 60.795971 
L 175.924304 61.039301 
L 176.430018 61.523563 
L 177.020018 62.398152 
L 177.694303 63.809736 
L 178.452874 65.92243 
L 179.380016 69.245357 
L 180.391444 73.759264 
L 181.571443 80.099884 
L 183.004299 89.120975 
L 184.94287 102.954255 
L 189.325724 134.83556 
L 190.75858 143.350749 
L 191.854293 148.629976 
L 192.781436 152.089614 
L 193.540007 154.152643 
L 194.214292 155.363756 
L 194.720006 155.870042 
L 195.141434 156.021294 
L 195.562862 155.922227 
L 195.984291 155.570028 
L 196.490005 154.811011 
L 197.080004 153.461195 
L 197.754289 151.310777 
L 198.51286 148.132099 
L 199.440003 143.198305 
L 200.535716 135.985788 
L 201.800001 126.030679 
L 203.401428 111.449031 
L 206.014284 85.141522 
L 208.542854 60.379623 
L 210.059995 47.602588 
L 211.239995 39.40078 
L 212.251422 33.857216 
L 213.094279 30.418347 
L 213.768564 28.49798 
L 214.358564 27.450417 
L 214.779992 27.07288 
L 215.117135 26.996394 
L 215.454277 27.121849 
L 215.875706 27.563689 
L 216.38142 28.511854 
L 216.971419 30.190687 
L 217.645704 32.852482 
L 218.404275 36.766338 
L 219.331418 42.80422 
L 220.427131 51.56742 
L 221.691416 63.563316 
L 223.377129 81.926808 
L 229.445696 150.525468 
L 230.709981 161.257262 
L 231.721409 168.140718 
L 232.564266 172.568906 
L 233.322837 175.459645 
L 233.912836 176.95879 
L 234.41855 177.708513 
L 234.839979 177.950852 
L 235.177121 177.892929 
L 235.514264 177.610898 
L 235.935692 176.943922 
L 236.441406 175.6856 
L 237.031406 173.595307 
L 237.789977 169.949829 
L 238.632833 164.693089 
L 239.644261 156.834983 
L 240.82426 145.784767 
L 242.257116 130.176182 
L 244.364258 104.490459 
L 247.904255 61.317947 
L 249.421397 45.628828 
L 250.601396 35.498064 
L 251.612824 28.556984 
L 252.455681 24.138073 
L 253.214252 21.291167 
L 253.804251 19.843756 
L 254.309965 19.147129 
L 254.731394 18.953092 
L 255.068536 19.051135 
L 255.405679 19.373691 
L 255.827107 20.090606 
L 256.332821 21.405656 
L 256.922821 23.554226 
L 257.681392 27.255635 
L 258.524248 32.540012 
L 259.535676 40.369489 
L 260.715675 51.283233 
L 262.232817 67.508478 
L 264.677101 96.49788 
L 267.458528 128.837216 
L 268.97567 144.055211 
L 270.239955 154.611309 
L 271.251382 161.374393 
L 272.178525 166.113545 
L 272.937096 168.888621 
L 273.527095 170.339091 
L 274.032809 171.082433 
L 274.454237 171.348048 
L 274.79138 171.329388 
L 275.128523 171.106381 
L 275.549951 170.542864 
L 276.055665 169.455192 
L 276.645664 167.632559 
L 277.404235 164.447052 
L 278.247092 159.863037 
L 279.25852 153.045558 
L 280.438519 143.533038 
L 281.955661 129.409308 
L 284.484231 103.398624 
L 287.097086 77.207606 
L 288.614228 64.039748 
L 289.878513 54.867579 
L 290.974226 48.509576 
L 291.901368 44.404415 
L 292.659939 41.961605 
L 293.334225 40.499454 
L 293.839939 39.844162 
L 294.261367 39.586403 
L 294.682795 39.588702 
L 295.104223 39.847889 
L 295.609937 40.491829 
L 296.199937 41.689716 
L 296.874222 43.623948 
L 297.717079 46.837872 
L 298.644221 51.303327 
L 299.82422 58.200894 
L 301.257076 68.00472 
L 303.448503 84.763894 
L 306.651358 109.105778 
L 308.252786 119.546808 
L 309.517071 126.429253 
L 310.612784 131.243088 
L 311.539927 134.408396 
L 312.382783 136.534364 
L 313.057068 137.713324 
L 313.647068 138.366031 
L 314.152782 138.647978 
L 314.658496 138.67909 
L 315.16421 138.466123 
L 315.754209 137.920327 
L 316.428495 136.923852 
L 317.187066 135.360445 
L 318.114208 132.87643 
L 319.209921 129.245543 
L 320.642778 123.621981 
L 322.749919 114.307394 
L 326.03706 99.841788 
L 327.638487 93.795252 
L 328.987058 89.525694 
L 330.167057 86.494682 
L 331.178485 84.44527 
L 332.105627 83.010756 
L 332.948483 82.063449 
L 333.79134 81.437109 
L 334.549911 81.127442 
L 335.308482 81.035945 
L 336.151338 81.160217 
L 337.078481 81.529242 
L 338.174194 82.211178 
L 339.691336 83.444441 
L 344.327047 87.405585 
L 345.928475 88.386304 
L 347.529902 89.109706 
L 349.805615 89.860557 
L 351.997042 90.646303 
L 353.345612 91.376103 
L 354.525612 92.280283 
L 355.621325 93.405034 
L 356.717039 94.848995 
L 357.897038 96.793243 
L 359.161323 99.336769 
L 360.594179 102.768351 
L 362.279892 107.4306 
L 365.314176 116.665359 
L 367.337032 122.469977 
L 368.685602 125.707104 
L 369.69703 127.625728 
L 370.539887 128.810771 
L 371.298457 129.509097 
L 371.888457 129.788211 
L 372.478457 129.820846 
L 373.068456 129.595029 
L 373.658456 129.101011 
L 374.332741 128.198714 
L 375.091312 126.745261 
L 375.934169 124.583387 
L 376.861311 121.550156 
L 377.957024 117.119069 
L 379.221309 110.968213 
L 380.738451 102.366425 
L 382.845592 88.975534 
L 386.38559 66.434931 
L 387.818446 58.754009 
L 388.998445 53.591115 
L 389.925588 50.445116 
L 390.684159 48.546934 
L 391.358444 47.412099 
L 391.864158 46.919725 
L 392.285586 46.752012 
L 392.707014 46.809498 
L 393.128443 47.095482 
L 393.634157 47.743376 
L 394.224156 48.921493 
L 394.898441 50.823144 
L 395.657012 53.659944 
L 396.584155 58.096288 
L 397.595582 64.077299 
L 398.775582 72.402633 
L 400.292724 84.85003 
L 402.399865 104.215284 
L 405.855577 136.02037 
L 407.372719 147.856096 
L 408.552718 155.42403 
L 409.564146 160.50608 
L 410.407002 163.623736 
L 411.081288 165.330796 
L 411.587002 166.131696 
L 412.00843 166.477259 
L 412.429858 166.525811 
L 412.767001 166.34893 
L 413.188429 165.856921 
L 413.694143 164.869053 
L 414.284143 163.171681 
L 414.958428 160.524318 
L 415.801284 156.186448 
L 416.728427 150.16518 
L 417.82414 141.511897 
L 419.172711 128.913722 
L 420.942709 109.988713 
L 426.336992 50.563896 
L 427.685562 38.960609 
L 428.781276 31.382053 
L 429.708418 26.469494 
L 430.466989 23.56445 
L 431.056988 22.033899 
L 431.562702 21.244324 
L 431.984131 20.960423 
L 432.321273 20.980073 
L 432.658416 21.219727 
L 433.079844 21.828486 
L 433.585558 23.010168 
L 434.175558 25.003255 
L 434.849843 28.072803 
L 435.692699 33.049991 
L 436.619842 39.894046 
L 437.715555 49.641555 
L 439.064126 63.696496 
L 440.91841 85.610525 
L 445.554121 141.582723 
L 446.986978 155.703795 
L 448.166977 165.193767 
L 449.094119 171.053072 
L 449.936976 175.039596 
L 450.611261 177.258762 
L 451.20126 178.470766 
L 451.622689 178.913037 
L 451.959831 179.011187 
L 452.296974 178.881827 
L 452.718402 178.400985 
L 453.224116 177.359283 
L 453.814116 175.512721 
L 454.488401 172.591444 
L 455.246972 168.313696 
L 456.174114 161.752507 
L 457.269828 152.301204 
L 458.618398 138.565946 
L 459.966969 123.115652 
L 459.966969 123.115652 
" clip-path="url(#p6172967356)" style="fill: none; stroke: #c00000; stroke-width: 1.15; stroke-linecap: square"/>
   </g>
   <g id="patch_3">
    <path d="M 38.622969 194.4 
L 38.622969 2.88 
" style="fill: none; stroke: #000000; stroke-width: 0.8; stroke-linejoin: miter; stroke-linecap: square"/>
   </g>
   <g id="patch_4">
    <path d="M 459.966969 194.4 
L 459.966969 2.88 
" style="fill: none; stroke: #000000; stroke-width: 0.8; stroke-linejoin: miter; stroke-linecap: square"/>
   </g>
   <g id="patch_5">
    <path d="M 38.622969 194.4 
L 459.966969 194.4 
" style="fill: none; stroke: #000000; stroke-width: 0.8; stroke-linejoin: miter; stroke-linecap: square"/>
   </g>
   <g id="legend_1">
    <g id="patch_6">
     <path d="M 197.996969 47.93332 
L 454.016969 47.93332 
Q 455.716969 47.93332 455.716969 46.23332 
L 455.716969 8.83 
Q 455.716969 7.13 454.016969 7.13 
L 197.996969 7.13 
Q 196.296969 7.13 196.296969 8.83 
L 196.296969 46.23332 
Q 196.296969 47.93332 197.996969 47.93332 
z
" style="fill: #ffffff; opacity: 0.92; stroke: #cccccc; stroke-linejoin: miter"/>
    </g>
    <g id="line2d_29">
     <path d="M 199.696969 14.013672 
L 208.196969 14.013672 
L 216.696969 14.013672 
" style="fill: none; stroke-dasharray: 5.18,2.24; stroke-dashoffset: 0; stroke: #1f4e79; stroke-width: 1.4"/>
    </g>
    <g id="text_16">
     <text style="font-size: 8.5px; font-family: 'Times New Roman', 'Times', 'DejaVu Serif', serif; text-anchor: start" x="223.496969" y="16.988672" transform="rotate(-0 223.496969 16.988672)">Ground truth</text>
    </g>
    <g id="line2d_30">
     <path d="M 199.696969 26.764336 
L 208.196969 26.764336 
L 216.696969 26.764336 
" style="fill: none; stroke: #c00000; stroke-width: 1.15; stroke-linecap: square"/>
    </g>
    <g id="text_17">
     <text style="font-size: 8.5px; font-family: 'Times New Roman', 'Times', 'DejaVu Serif', serif; text-anchor: start" x="223.496969" y="29.739336" transform="rotate(-0 223.496969 29.739336)">NUAA-MU reconstruction</text>
    </g>
    <g id="line2d_31">
     <path d="M 199.696969 39.516328 
L 208.196969 39.516328 
L 216.696969 39.516328 
" style="fill: none; stroke: #7f7f7f; stroke-opacity: 0.7; stroke-width: 0.9; stroke-linecap: square"/>
    </g>
    <g id="text_18">
     <!-- Observed (jam + noise, SNR $=-10$ dB, SIR $=-40$ dB) -->
     <g transform="translate(223.496969 42.491328)">
      <text>
       <tspan x="0" y="-0.546875" style="font-size: 8.5px; font-family: 'DejaVu Serif'">O</tspan>
       <tspan x="6.968506" y="-0.546875" style="font-size: 8.5px; font-family: 'DejaVu Serif'">b</tspan>
       <tspan x="12.409668" y="-0.546875" style="font-size: 8.5px; font-family: 'DejaVu Serif'">s</tspan>
       <tspan x="16.771729" y="-0.546875" style="font-size: 8.5px; font-family: 'DejaVu Serif'">e</tspan>
       <tspan x="21.802002" y="-0.546875" style="font-size: 8.5px; font-family: 'DejaVu Serif'">r</tspan>
       <tspan x="25.865234" y="-0.546875" style="font-size: 8.5px; font-family: 'DejaVu Serif'">v</tspan>
       <tspan x="30.667236" y="-0.546875" style="font-size: 8.5px; font-family: 'DejaVu Serif'">e</tspan>
       <tspan x="35.69751" y="-0.546875" style="font-size: 8.5px; font-family: 'DejaVu Serif'">d</tspan>
       <tspan x="41.138672" y="-0.546875" style="font-size: 8.5px; font-family: 'DejaVu Serif'"> </tspan>
       <tspan x="43.840576" y="-0.546875" style="font-size: 8.5px; font-family: 'DejaVu Serif'">(</tspan>
       <tspan x="47.156738" y="-0.546875" style="font-size: 8.5px; font-family: 'DejaVu Serif'">j</tspan>
       <tspan x="49.792236" y="-0.546875" style="font-size: 8.5px; font-family: 'DejaVu Serif'">a</tspan>
       <tspan x="54.859863" y="-0.546875" style="font-size: 8.5px; font-family: 'DejaVu Serif'">m</tspan>
       <tspan x="62.919922" y="-0.546875" style="font-size: 8.5px; font-family: 'DejaVu Serif'"> </tspan>
       <tspan x="65.621826" y="-0.546875" style="font-size: 8.5px; font-family: 'DejaVu Serif'">+</tspan>
       <tspan x="72.743896" y="-0.546875" style="font-size: 8.5px; font-family: 'DejaVu Serif'"> </tspan>
       <tspan x="75.445801" y="-0.546875" style="font-size: 8.5px; font-family: 'DejaVu Serif'">n</tspan>
       <tspan x="80.920166" y="-0.546875" style="font-size: 8.5px; font-family: 'DejaVu Serif'">o</tspan>
       <tspan x="86.037598" y="-0.546875" style="font-size: 8.5px; font-family: 'DejaVu Serif'">i</tspan>
       <tspan x="88.756104" y="-0.546875" style="font-size: 8.5px; font-family: 'DejaVu Serif'">s</tspan>
       <tspan x="93.118164" y="-0.546875" style="font-size: 8.5px; font-family: 'DejaVu Serif'">e</tspan>
       <tspan x="98.148438" y="-0.546875" style="font-size: 8.5px; font-family: 'DejaVu Serif'">,</tspan>
       <tspan x="100.850342" y="-0.546875" style="font-size: 8.5px; font-family: 'DejaVu Serif'"> </tspan>
       <tspan x="103.552246" y="-0.546875" style="font-size: 8.5px; font-family: 'DejaVu Serif'">S</tspan>
       <tspan x="109.375244" y="-0.546875" style="font-size: 8.5px; font-family: 'DejaVu Serif'">N</tspan>
       <tspan x="116.812744" y="-0.546875" style="font-size: 8.5px; font-family: 'DejaVu Serif'">R</tspan>
       <tspan x="123.212646" y="-0.546875" style="font-size: 8.5px; font-family: 'DejaVu Serif'"> </tspan>
       <tspan x="149.459784" y="-0.546875" style="font-size: 8.5px; font-family: 'DejaVu Serif'"> </tspan>
       <tspan x="152.161688" y="-0.546875" style="font-size: 8.5px; font-family: 'DejaVu Serif'">d</tspan>
       <tspan x="157.60285" y="-0.546875" style="font-size: 8.5px; font-family: 'DejaVu Serif'">B</tspan>
       <tspan x="163.849188" y="-0.546875" style="font-size: 8.5px; font-family: 'DejaVu Serif'">,</tspan>
       <tspan x="166.551093" y="-0.546875" style="font-size: 8.5px; font-family: 'DejaVu Serif'"> </tspan>
       <tspan x="169.252997" y="-0.546875" style="font-size: 8.5px; font-family: 'DejaVu Serif'">S</tspan>
       <tspan x="175.075995" y="-0.546875" style="font-size: 8.5px; font-family: 'DejaVu Serif'">I</tspan>
       <tspan x="178.433661" y="-0.546875" style="font-size: 8.5px; font-family: 'DejaVu Serif'">R</tspan>
       <tspan x="184.833563" y="-0.546875" style="font-size: 8.5px; font-family: 'DejaVu Serif'"> </tspan>
       <tspan x="211.080701" y="-0.546875" style="font-size: 8.5px; font-family: 'DejaVu Serif'"> </tspan>
       <tspan x="213.782605" y="-0.546875" style="font-size: 8.5px; font-family: 'DejaVu Serif'">d</tspan>
       <tspan x="219.223767" y="-0.546875" style="font-size: 8.5px; font-family: 'DejaVu Serif'">B</tspan>
       <tspan x="225.470105" y="-0.546875" style="font-size: 8.5px; font-family: 'DejaVu Serif'">)</tspan>
       <tspan x="127.614551" y="-0.546875" style="font-size: 8.5px; font-family: 'STIXGeneral'">=</tspan>
       <tspan x="135.137122" y="-0.546875" style="font-size: 8.5px; font-family: 'STIXGeneral'">−</tspan>
       <tspan x="140.959692" y="-0.546875" style="font-size: 8.5px; font-family: 'STIXGeneral'">1</tspan>
       <tspan x="145.209738" y="-0.546875" style="font-size: 8.5px; font-family: 'STIXGeneral'">0</tspan>
       <tspan x="189.235468" y="-0.546875" style="font-size: 8.5px; font-family: 'STIXGeneral'">=</tspan>
       <tspan x="196.758038" y="-0.546875" style="font-size: 8.5px; font-family: 'STIXGeneral'">−</tspan>
       <tspan x="202.580609" y="-0.546875" style="font-size: 8.5px; font-family: 'STIXGeneral'">4</tspan>
       <tspan x="206.830655" y="-0.546875" style="font-size: 8.5px; font-family: 'STIXGeneral'">0</tspan>
      </text>
     </g>
    </g>
   </g>
  </g>
  <g id="axes_2">
   <g id="matplotlib.axis_3">
    <g id="ytick_8">
     <g id="line2d_32">
      <defs>
       <path id="m2ebb31a9fc" d="M 0 0 
L 3.5 0 
" style="stroke: #000000; stroke-width: 0.8"/>
      </defs>
      <g>
       <use xlink:href="#m2ebb31a9fc" x="459.966969" y="182.991175" style="stroke: #000000; stroke-width: 0.8"/>
      </g>
     </g>
     <g id="text_19">
      <text style="font-size: 10px; font-family: 'Times New Roman', 'Times', 'DejaVu Serif', serif; text-anchor: start; fill: #666666" x="466.966969" y="186.790003" transform="rotate(-0 466.966969 186.790003)">−100</text>
     </g>
    </g>
    <g id="ytick_9">
     <g id="line2d_33">
      <g>
       <use xlink:href="#m2ebb31a9fc" x="459.966969" y="140.815587" style="stroke: #000000; stroke-width: 0.8"/>
      </g>
     </g>
     <g id="text_20">
      <text style="font-size: 10px; font-family: 'Times New Roman', 'Times', 'DejaVu Serif', serif; text-anchor: start; fill: #666666" x="466.966969" y="144.614415" transform="rotate(-0 466.966969 144.614415)">−50</text>
     </g>
    </g>
    <g id="ytick_10">
     <g id="line2d_34">
      <g>
       <use xlink:href="#m2ebb31a9fc" x="459.966969" y="98.64" style="stroke: #000000; stroke-width: 0.8"/>
      </g>
     </g>
     <g id="text_21">
      <text style="font-size: 10px; font-family: 'Times New Roman', 'Times', 'DejaVu Serif', serif; text-anchor: start; fill: #666666" x="466.966969" y="102.438828" transform="rotate(-0 466.966969 102.438828)">0</text>
     </g>
    </g>
    <g id="ytick_11">
     <g id="line2d_35">
      <g>
       <use xlink:href="#m2ebb31a9fc" x="459.966969" y="56.464413" style="stroke: #000000; stroke-width: 0.8"/>
      </g>
     </g>
     <g id="text_22">
      <text style="font-size: 10px; font-family: 'Times New Roman', 'Times', 'DejaVu Serif', serif; text-anchor: start; fill: #666666" x="466.966969" y="60.263241" transform="rotate(-0 466.966969 60.263241)">50</text>
     </g>
    </g>
    <g id="ytick_12">
     <g id="line2d_36">
      <g>
       <use xlink:href="#m2ebb31a9fc" x="459.966969" y="14.288825" style="stroke: #000000; stroke-width: 0.8"/>
      </g>
     </g>
     <g id="text_23">
      <text style="font-size: 10px; font-family: 'Times New Roman', 'Times', 'DejaVu Serif', serif; text-anchor: start; fill: #666666" x="466.966969" y="18.087653" transform="rotate(-0 466.966969 18.087653)">100</text>
     </g>
    </g>
    <g id="text_24">
     <text style="font-size: 10px; font-family: 'Times New Roman', 'Times', 'DejaVu Serif', serif; text-anchor: middle; fill: #666666" x="506.032594" y="98.64" transform="rotate(-90 506.032594 98.64)">Amplitude (observed)</text>
    </g>
   </g>
   <g id="line2d_37">
    <path d="M 38.622969 16.300581 
L 38.707254 16.434875 
L 38.875826 18.546063 
L 39.212968 24.337442 
L 39.297254 24.488055 
L 39.802968 30.796461 
L 39.887254 31.298651 
L 40.224396 37.12902 
L 40.477253 40.170015 
L 40.73011 43.823974 
L 40.814396 44.245298 
L 41.067253 49.40607 
L 42.247252 70.745031 
L 42.331538 70.890535 
L 42.837252 81.204069 
L 42.921537 81.157079 
L 43.511537 92.245978 
L 43.848679 105.000029 
L 44.185822 109.531183 
L 44.270108 109.103811 
L 44.354393 109.245819 
L 44.60725 113.40348 
L 45.19725 129.735432 
L 45.281536 130.865058 
L 45.534393 136.39142 
L 45.702964 138.977568 
L 45.955821 142.635288 
L 46.461535 151.148326 
L 46.630106 153.442418 
L 48.484391 177.580495 
L 48.652962 178.924185 
L 48.737248 178.892338 
L 48.821533 177.850594 
L 49.158676 180.843857 
L 49.242962 180.79786 
L 49.327247 180.331068 
L 49.411533 180.715858 
L 49.580104 179.86855 
L 49.66439 180.135083 
L 49.748675 178.880762 
L 50.170104 183.422962 
L 50.254389 183.787689 
L 50.338675 183.64033 
L 50.507246 185.077135 
L 50.591532 184.949873 
L 50.675818 184.411435 
L 50.760103 182.853936 
L 50.844389 183.501274 
L 51.01296 181.947781 
L 51.181532 182.252663 
L 51.265817 182.190386 
L 51.350103 181.839408 
L 51.434389 182.381935 
L 51.687246 180.854047 
L 52.024388 176.386467 
L 52.108674 176.388822 
L 52.361531 174.299826 
L 52.445817 174.23425 
L 52.95153 169.478013 
L 53.204387 165.685593 
L 54.552958 146.412623 
L 54.721529 145.136617 
L 54.805815 144.152174 
L 55.311529 133.356846 
L 55.648671 126.509618 
L 56.238671 112.673599 
L 56.322957 112.828839 
L 56.491528 109.959724 
L 57.250099 95.102651 
L 57.587242 88.360161 
L 57.840099 83.293165 
L 58.092956 78.910996 
L 58.598669 66.608629 
L 59.525812 51.768107 
L 59.778669 48.403957 
L 60.031526 45.640473 
L 60.200097 43.915954 
L 60.705811 32.933003 
L 60.874382 32.204884 
L 60.958668 33.380625 
L 61.127239 32.571764 
L 61.88581 22.960201 
L 61.970096 22.676533 
L 62.138667 21.504464 
L 62.728667 17.623042 
L 62.812952 17.508125 
L 62.897238 16.815529 
L 63.065809 18.615811 
L 63.150095 19.50339 
L 63.234381 19.390134 
L 63.487238 17.652732 
L 63.571523 16.746751 
L 63.655809 17.019007 
L 63.908666 16.256229 
L 63.992952 16.434366 
L 64.077237 16.95842 
L 64.161523 16.908999 
L 64.245809 16.568181 
L 64.41438 15.72071 
L 64.498665 15.589929 
L 64.835808 18.855773 
L 64.920094 18.997162 
L 65.088665 20.938785 
L 65.172951 21.585757 
L 65.341522 21.001542 
L 65.425808 21.027485 
L 65.847236 25.574223 
L 66.268664 33.524215 
L 66.437236 37.291877 
L 66.521521 37.399182 
L 66.690093 37.135022 
L 67.027235 39.030535 
L 68.122949 60.323694 
L 68.29152 62.65875 
L 69.724376 89.589588 
L 69.892948 94.143 
L 69.977233 94.574994 
L 70.314376 99.346296 
L 71.325804 120.52708 
L 71.915803 127.534689 
L 72.337232 137.466461 
L 74.275802 169.633333 
L 74.360087 169.536864 
L 74.612944 168.263313 
L 74.781516 169.013059 
L 75.118658 173.152644 
L 75.202944 172.931229 
L 75.371515 174.89725 
L 75.455801 174.287961 
L 75.624372 175.678591 
L 76.045801 181.332881 
L 76.214372 180.3496 
L 76.298657 181.46676 
L 76.551514 180.339145 
L 76.888657 181.435121 
L 77.141514 180.370672 
L 77.394371 178.311018 
L 77.731514 180.264161 
L 77.900085 179.268439 
L 77.984371 179.527368 
L 78.068656 179.274333 
L 78.405799 174.677384 
L 78.490085 174.501761 
L 78.742942 171.876773 
L 78.827227 170.320121 
L 78.911513 170.564775 
L 78.995799 171.420728 
L 79.670084 159.571786 
L 79.754369 159.336811 
L 79.838655 159.855617 
L 79.922941 159.827378 
L 80.091512 156.838791 
L 80.681512 147.985801 
L 80.765797 147.61761 
L 81.018654 143.02048 
L 81.440083 134.502775 
L 81.524368 133.820534 
L 81.861511 127.772848 
L 81.945797 126.907343 
L 82.198653 122.555194 
L 82.45151 118.164786 
L 83.04151 99.627647 
L 83.125796 99.751248 
L 83.294367 98.377085 
L 83.63151 92.777787 
L 83.968652 85.598756 
L 84.052938 84.702749 
L 84.137224 85.115251 
L 84.390081 80.553528 
L 85.485794 58.302441 
L 86.160079 47.198978 
L 86.497222 40.945723 
L 86.834365 39.607699 
L 87.424364 29.234842 
L 87.50865 29.517564 
L 87.677221 26.818663 
L 87.761507 27.189672 
L 87.845793 26.603926 
L 88.098649 23.60762 
L 88.688649 18.951096 
L 88.772935 19.625315 
L 89.025792 17.916549 
L 89.278649 13.458735 
L 89.362934 13.273872 
L 89.868648 16.802655 
L 89.952934 16.441191 
L 90.03722 16.516189 
L 90.121505 16.286484 
L 90.290077 14.302236 
L 90.627219 16.726694 
L 91.132933 19.589697 
L 91.301504 18.688712 
L 91.638647 22.356756 
L 91.722933 23.269201 
L 91.97579 27.195955 
L 92.060075 28.20712 
L 92.312932 27.330351 
L 92.397218 27.458382 
L 92.481504 27.198158 
L 92.565789 27.246289 
L 92.902932 32.164246 
L 93.240075 40.915084 
L 93.492932 46.407305 
L 93.577217 46.798134 
L 93.661503 46.691933 
L 93.745789 46.710986 
L 93.830074 46.577717 
L 93.91436 47.070163 
L 94.757216 62.385623 
L 95.010073 66.557166 
L 96.190073 90.671769 
L 96.358644 92.45542 
L 96.864358 104.830103 
L 97.285786 112.940707 
L 97.370072 112.764196 
L 97.538643 114.430678 
L 97.622929 115.86122 
L 97.960071 127.623617 
L 98.212928 132.654012 
L 98.297214 132.902739 
L 98.550071 135.216283 
L 99.055785 147.354458 
L 99.140071 147.224865 
L 99.392928 148.483858 
L 99.477213 148.398185 
L 99.73007 151.345617 
L 100.404355 166.119935 
L 100.657212 168.353672 
L 101.415783 178.110512 
L 101.500069 178.12047 
L 101.584355 178.450195 
L 101.752926 178.260592 
L 102.427211 183.571816 
L 102.511497 183.436419 
L 102.680068 181.944441 
L 102.764354 182.253945 
L 102.932925 181.271518 
L 103.017211 181.571681 
L 103.270068 184.666761 
L 103.354353 184.814984 
L 103.438639 185.236453 
L 103.60721 184.472581 
L 104.028639 180.2882 
L 104.19721 181.311623 
L 104.281496 181.474301 
L 104.618638 179.197066 
L 104.78721 176.818877 
L 104.955781 175.789095 
L 105.208638 173.983143 
L 105.292924 174.100132 
L 105.967209 168.716716 
L 106.557208 160.390271 
L 107.231494 147.653717 
L 107.315779 148.13776 
L 107.568636 143.038919 
L 108.411493 128.031947 
L 109.001492 115.874045 
L 109.085778 116.018977 
L 109.254349 113.204708 
L 109.844349 99.053632 
L 110.097206 92.615909 
L 110.518634 82.562147 
L 110.60292 82.267309 
L 111.108634 74.806385 
L 111.530062 65.541885 
L 111.95149 59.350269 
L 113.468632 35.773737 
L 113.637204 34.643643 
L 114.311489 23.188732 
L 114.395775 23.152723 
L 114.48006 23.539721 
L 114.564346 23.409031 
L 114.648631 22.927765 
L 114.901488 19.432442 
L 114.985774 18.480671 
L 115.07006 18.900733 
L 115.154345 18.721325 
L 115.238631 18.794704 
L 115.322917 18.054465 
L 115.407202 18.236707 
L 115.660059 17.120311 
L 115.912916 13.677619 
L 116.081488 12.802447 
L 116.165773 13.07815 
L 116.250059 13.030745 
L 116.671487 15.32118 
L 116.755773 14.75116 
L 116.840059 15.085672 
L 117.00863 13.585858 
L 117.092916 13.356512 
L 117.177201 13.689957 
L 117.261487 13.210366 
L 117.430058 15.015921 
L 117.514344 14.968734 
L 118.104343 19.46176 
L 118.188629 19.697546 
L 118.272915 20.388402 
L 118.441486 23.224544 
L 118.610057 23.94219 
L 118.778629 25.759822 
L 118.862914 25.637219 
L 119.031486 27.222354 
L 119.115771 26.824795 
L 119.5372 32.778788 
L 119.621485 32.645028 
L 120.042914 36.918903 
L 120.295771 42.831549 
L 120.632913 50.480932 
L 120.801484 52.047859 
L 121.054341 56.386366 
L 121.644341 68.612418 
L 121.897198 70.882126 
L 122.234341 77.261948 
L 122.992912 94.73823 
L 123.582911 103.404939 
L 124.004339 116.869248 
L 124.341482 123.039243 
L 124.931482 130.690462 
L 125.015767 131.02095 
L 125.858624 151.040947 
L 125.94291 151.29946 
L 126.364338 155.40311 
L 126.70148 160.373377 
L 127.038623 163.083643 
L 127.460051 172.721029 
L 127.544337 173.67507 
L 127.628623 173.563763 
L 127.797194 172.670521 
L 127.965765 173.299135 
L 128.387194 177.476676 
L 128.471479 177.349477 
L 128.640051 178.021285 
L 128.724336 177.026012 
L 128.808622 177.081127 
L 128.892908 178.551904 
L 128.977193 178.260712 
L 129.398621 183.594538 
L 129.482907 182.357832 
L 129.567193 182.572092 
L 129.651478 182.775807 
L 129.735764 182.044456 
L 129.904335 183.926881 
L 129.988621 183.218468 
L 130.072907 183.794937 
L 130.157192 183.711083 
L 130.241478 183.977475 
L 130.325764 183.872374 
L 130.410049 183.352639 
L 130.578621 180.343522 
L 130.662906 179.653657 
L 130.915763 181.900131 
L 131.084335 180.179347 
L 131.421477 177.914657 
L 131.674334 175.279617 
L 131.75862 175.38929 
L 132.180048 167.567946 
L 132.348619 164.791199 
L 132.517191 163.546701 
L 132.601476 162.201614 
L 132.685762 163.126998 
L 133.022905 160.408261 
L 133.275762 156.582934 
L 133.360047 156.598084 
L 134.28719 140.857987 
L 134.371475 139.892573 
L 134.624332 133.887673 
L 134.792904 131.826432 
L 134.877189 131.676464 
L 135.214332 127.195279 
L 135.804331 110.223794 
L 135.888617 109.142159 
L 136.141474 104.096197 
L 136.731474 93.590844 
L 137.152902 81.812753 
L 137.57433 77.130233 
L 138.16433 64.581668 
L 138.248615 64.07925 
L 138.501472 60.787863 
L 138.585758 59.78894 
L 139.260043 42.894344 
L 139.765757 38.418601 
L 140.1029 33.509739 
L 140.271471 31.688575 
L 140.355757 32.140271 
L 140.608614 28.529536 
L 140.945757 22.149696 
L 141.114328 22.496431 
L 141.367185 25.198522 
L 141.620042 21.657725 
L 142.04147 12.97777 
L 142.125756 13.337964 
L 142.378613 16.425449 
L 142.462898 16.055292 
L 142.547184 16.613805 
L 142.63147 16.3954 
L 142.715755 16.599792 
L 143.137184 12.071797 
L 143.221469 12.017424 
L 143.390041 11.619709 
L 143.727183 13.75626 
L 143.811469 13.762834 
L 143.98004 15.752615 
L 144.064326 15.508002 
L 144.485754 19.776555 
L 144.654325 19.166582 
L 144.738611 19.216443 
L 144.822897 19.998898 
L 145.412896 31.326426 
L 145.497182 31.133133 
L 145.581468 30.574016 
L 145.665753 31.007622 
L 145.750039 30.850619 
L 146.002896 34.555193 
L 146.340039 38.041155 
L 146.424324 39.634032 
L 146.50861 39.594299 
L 146.677181 41.782732 
L 147.014324 47.759943 
L 147.098609 47.709979 
L 147.520038 54.997569 
L 148.025752 65.914597 
L 148.194323 68.120535 
L 148.531466 76.425071 
L 149.03718 87.819168 
L 149.121465 88.030413 
L 149.290037 90.752664 
L 149.795751 102.835098 
L 150.048607 109.84571 
L 150.301464 113.828609 
L 150.38575 115.283534 
L 150.470036 115.033796 
L 150.554321 115.082214 
L 152.661463 154.750261 
L 152.830034 156.213203 
L 152.91432 155.726702 
L 152.998605 155.917811 
L 153.251462 159.316175 
L 154.094319 172.546775 
L 154.347176 176.247904 
L 154.431462 175.774352 
L 154.600033 177.316802 
L 154.85289 178.301692 
L 154.937176 178.079961 
L 155.105747 178.750464 
L 155.190033 179.766368 
L 155.274318 179.569405 
L 155.358604 179.632287 
L 155.527175 181.571008 
L 155.695747 182.893378 
L 155.948603 182.194739 
L 156.032889 182.567268 
L 156.117175 181.619743 
L 156.20146 181.778149 
L 156.285746 181.559744 
L 156.370032 180.605737 
L 156.707174 184.464045 
L 156.79146 183.772853 
L 156.960031 185.267879 
L 157.297174 180.533407 
L 157.550031 177.663935 
L 157.802888 175.643257 
L 157.971459 177.446929 
L 158.055745 177.2994 
L 158.308602 176.209525 
L 158.392888 175.607235 
L 158.898601 167.871124 
L 159.151458 163.92104 
L 159.32003 162.208447 
L 159.488601 161.045312 
L 159.572887 161.204881 
L 159.994315 154.938594 
L 160.415743 147.865915 
L 160.921457 136.323548 
L 161.090029 133.890408 
L 161.342886 128.878831 
L 161.427171 128.778079 
L 161.595743 127.195056 
L 161.680028 126.775906 
L 162.354313 111.552658 
L 162.438599 111.12826 
L 162.775742 103.998803 
L 163.028599 96.503539 
L 163.365741 89.278653 
L 163.702884 83.723562 
L 164.377169 71.154778 
L 164.545741 68.915897 
L 164.882883 62.384599 
L 164.967169 61.954257 
L 165.220026 57.791362 
L 165.641454 45.964477 
L 165.894311 42.442387 
L 165.978597 42.616107 
L 166.568596 34.985218 
L 167.495739 20.524005 
L 167.66431 22.207952 
L 167.748595 22.10031 
L 167.832881 21.261167 
L 167.917167 22.032097 
L 168.001452 21.696575 
L 168.085738 22.281374 
L 168.591452 14.90008 
L 168.675738 15.379929 
L 168.844309 13.228214 
L 168.928595 13.246074 
L 169.01288 12.742083 
L 169.097166 13.993693 
L 169.181452 12.880037 
L 169.350023 13.705515 
L 169.434309 13.692757 
L 169.687166 15.124154 
L 169.855737 14.006819 
L 170.108594 16.537833 
L 170.19288 15.734354 
L 170.277165 15.796038 
L 170.361451 15.32357 
L 170.530022 16.542087 
L 170.698593 15.885198 
L 170.782879 16.110784 
L 171.288593 20.619302 
L 171.794307 26.814711 
L 171.878593 26.443081 
L 171.962878 26.575619 
L 172.047164 27.246698 
L 172.552878 35.801647 
L 173.227163 42.160232 
L 174.07002 58.158681 
L 174.154305 58.072553 
L 176.00859 92.919216 
L 176.514304 105.908453 
L 177.188589 115.556022 
L 177.778589 130.132946 
L 178.200017 134.635507 
L 178.705731 143.704327 
L 178.874302 145.350836 
L 179.717159 158.930442 
L 180.054301 164.795032 
L 180.307158 167.302417 
L 180.47573 168.646316 
L 180.560015 167.861394 
L 180.644301 168.859276 
L 180.981444 176.595743 
L 181.150015 178.17324 
L 181.234301 177.377097 
L 181.318586 177.567225 
L 181.402872 177.231951 
L 181.571443 175.438995 
L 181.740015 178.581614 
L 181.8243 178.550001 
L 181.908586 178.728211 
L 182.077157 180.119984 
L 182.161443 180.073375 
L 182.245729 179.807737 
L 182.4143 180.440097 
L 182.498585 180.72532 
L 182.751442 184.047662 
L 182.835728 184.644265 
L 182.920014 184.273516 
L 183.257156 180.438395 
L 183.341442 180.650722 
L 183.510013 180.236754 
L 183.594299 180.356961 
L 183.76287 181.668775 
L 183.847156 181.576555 
L 183.931442 180.780382 
L 184.184299 176.649936 
L 184.437156 175.24776 
L 184.774298 173.761567 
L 185.027155 170.611709 
L 185.195727 169.712188 
L 185.617155 166.429141 
L 185.954297 160.165962 
L 187.218582 141.140974 
L 187.640011 134.11483 
L 187.724296 134.506602 
L 187.808582 134.152511 
L 188.145725 126.021456 
L 188.567153 115.390931 
L 188.651438 114.502133 
L 188.735724 114.836315 
L 188.904295 111.499039 
L 189.831438 91.892074 
L 190.16858 87.178362 
L 191.264294 64.206538 
L 191.938579 54.609593 
L 192.022865 54.886051 
L 192.360007 48.009526 
L 192.612864 43.549954 
L 192.865721 38.192609 
L 193.371435 29.942684 
L 193.540007 30.189375 
L 193.624292 30.191102 
L 193.877149 25.727811 
L 194.130006 23.934372 
L 194.214292 24.034098 
L 194.298577 23.468466 
L 194.467149 24.607362 
L 194.551434 24.008203 
L 194.972863 17.107429 
L 195.141434 17.984105 
L 195.22572 17.216047 
L 195.478577 18.333526 
L 195.562862 18.304174 
L 195.731434 15.922562 
L 195.815719 16.087736 
L 195.984291 14.588608 
L 196.57429 19.48698 
L 196.911433 16.51472 
L 197.080004 17.23036 
L 197.16429 18.79881 
L 197.248575 18.651126 
L 197.417147 20.245899 
L 197.501432 20.491515 
L 197.670004 21.674746 
L 197.754289 22.042776 
L 197.838575 21.787743 
L 197.922861 22.193946 
L 198.091432 23.620322 
L 198.428575 27.280778 
L 198.597146 29.927268 
L 198.681432 30.18564 
L 199.018574 34.88971 
L 199.608574 42.91143 
L 199.861431 44.847716 
L 201.125716 70.405526 
L 201.210001 70.466889 
L 201.63143 75.580515 
L 202.137144 88.628006 
L 202.305715 90.3621 
L 202.390001 90.000744 
L 202.558572 92.684571 
L 202.642858 93.431438 
L 203.064286 107.611301 
L 203.57 118.259391 
L 204.075714 126.516011 
L 204.244285 127.492716 
L 204.581428 134.218568 
L 205.339999 149.015368 
L 205.592856 151.467802 
L 206.772855 168.18413 
L 206.85714 167.876965 
L 207.362854 174.809261 
L 207.44714 174.779786 
L 207.699997 175.735372 
L 207.784283 176.254295 
L 207.868568 175.808006 
L 208.374282 180.862126 
L 208.458568 180.849323 
L 208.627139 181.500329 
L 208.711425 181.153534 
L 208.79571 181.253637 
L 208.879996 181.944035 
L 208.964282 181.310837 
L 209.048567 181.550857 
L 209.217139 182.991637 
L 209.301424 183.021526 
L 209.38571 183.270895 
L 209.554281 182.326078 
L 209.722853 180.516974 
L 209.891424 181.841838 
L 210.059995 180.175034 
L 210.144281 180.366273 
L 210.312852 179.188933 
L 210.649995 175.354071 
L 210.734281 175.670883 
L 210.818566 174.94497 
L 210.902852 175.134297 
L 210.987138 174.747782 
L 211.155709 173.002365 
L 211.239995 172.751398 
L 211.577137 169.506213 
L 211.661423 169.302407 
L 211.998565 164.592263 
L 212.251422 161.304125 
L 212.335708 160.01251 
L 212.419994 160.215534 
L 212.504279 160.148396 
L 213.178565 148.497105 
L 213.347136 147.094076 
L 213.431422 147.237473 
L 213.599993 143.98346 
L 213.937136 136.185109 
L 214.274278 126.897182 
L 214.695706 120.225772 
L 215.032849 116.855818 
L 216.549991 85.382888 
L 216.634277 84.903646 
L 217.814276 60.501473 
L 218.151418 54.138286 
L 218.488561 48.793101 
L 218.741418 46.552876 
L 218.994275 44.146182 
L 219.66856 31.444813 
L 219.837132 30.389096 
L 220.005703 28.810138 
L 220.089989 28.37354 
L 220.174274 28.558584 
L 221.017131 18.371715 
L 221.60713 14.606011 
L 221.691416 14.763422 
L 221.859987 14.488943 
L 222.281416 9.973333 
L 222.365701 10.859041 
L 222.449987 10.660934 
L 222.534273 10.842421 
L 222.78713 14.32427 
L 222.871415 14.327298 
L 223.039987 13.515537 
L 223.124272 12.517406 
L 223.208558 12.632533 
L 223.967129 20.37867 
L 224.051414 20.920016 
L 224.1357 20.137754 
L 224.219986 20.314242 
L 224.809985 25.74707 
L 225.315699 33.461624 
L 225.905699 39.763303 
L 226.158556 43.125907 
L 226.495698 47.153764 
L 226.832841 52.815201 
L 227.507126 69.195652 
L 227.591412 69.981243 
L 227.844269 74.615768 
L 228.01284 75.962275 
L 228.60284 88.199141 
L 228.855697 93.176287 
L 229.024268 95.810351 
L 229.361411 104.222893 
L 229.529982 106.410035 
L 229.867125 113.113475 
L 230.119982 116.735937 
L 230.962838 136.088273 
L 231.047124 135.630907 
L 231.384267 140.030135 
L 233.322837 171.322163 
L 233.491408 171.618847 
L 233.575694 170.942913 
L 234.41855 181.618196 
L 234.502836 181.712596 
L 234.587122 181.184956 
L 234.924264 183.11727 
L 235.092836 184.578335 
L 235.177121 184.641373 
L 235.261407 183.569457 
L 235.429978 185.22902 
L 235.514264 184.583458 
L 235.682835 185.279066 
L 235.767121 185.379496 
L 235.935692 186.521657 
L 236.019978 186.837816 
L 236.272835 185.32924 
L 236.35712 185.820077 
L 236.441406 185.412286 
L 236.525692 185.573897 
L 236.609977 186.812201 
L 236.94712 183.187263 
L 237.958548 172.19807 
L 238.042834 172.402806 
L 238.127119 173.336245 
L 238.29569 170.793345 
L 238.801404 160.568247 
L 239.391404 156.427761 
L 239.644261 152.611549 
L 240.655689 136.428835 
L 241.161403 124.627334 
L 241.329974 122.170049 
L 241.498545 119.50693 
L 241.835688 112.591679 
L 243.268544 83.233607 
L 243.35283 83.286484 
L 243.605687 78.301456 
L 243.858544 74.498246 
L 244.195686 65.277276 
L 246.049971 32.298723 
L 246.387114 30.328644 
L 246.639971 26.824495 
L 246.724256 26.819387 
L 247.061399 22.463489 
L 247.145684 22.629774 
L 247.398541 18.81198 
L 247.482827 17.064042 
L 247.567113 17.202073 
L 248.072827 15.059602 
L 248.157112 15.448081 
L 248.325684 13.92738 
L 248.409969 14.145371 
L 248.494255 13.756383 
L 248.578541 14.133535 
L 248.662826 13.184679 
L 248.747112 13.947778 
L 248.831398 13.772717 
L 248.915683 13.501329 
L 248.999969 12.0607 
L 249.084255 12.226568 
L 249.16854 12.473596 
L 249.252826 12.198232 
L 249.589969 13.678687 
L 249.927111 16.691139 
L 250.011397 15.738006 
L 250.264254 17.644662 
L 250.348539 17.719086 
L 250.432825 17.365096 
L 250.601396 18.169468 
L 250.685682 18.46262 
L 250.854253 20.043124 
L 251.022825 20.179177 
L 251.781396 27.342713 
L 252.202824 31.668348 
L 252.624252 40.625405 
L 252.877109 46.503889 
L 253.214252 49.570569 
L 253.972823 63.396267 
L 254.141394 64.241661 
L 254.309965 67.198237 
L 254.478537 70.858386 
L 254.984251 83.801136 
L 255.405679 87.6208 
L 256.501392 114.409835 
L 256.838535 119.64884 
L 256.922821 119.530586 
L 257.007106 119.017211 
L 257.175678 121.532114 
L 257.51282 130.350624 
L 257.681392 133.151804 
L 258.524248 150.64596 
L 258.608534 150.200264 
L 260.209961 174.636731 
L 260.294247 173.568883 
L 260.378533 174.482897 
L 260.462818 173.202662 
L 260.63139 174.745517 
L 260.715675 174.553734 
L 261.221389 181.221509 
L 261.389961 179.648666 
L 261.474246 178.869615 
L 261.811389 181.657944 
L 261.895674 180.967797 
L 262.064246 182.779932 
L 262.148531 182.763678 
L 262.232817 183.066542 
L 262.317103 182.590223 
L 262.401388 182.868584 
L 262.56996 182.0218 
L 262.738531 183.109646 
L 262.822817 182.837741 
L 262.907102 180.812339 
L 262.991388 181.324223 
L 263.075674 181.144864 
L 263.581388 175.856304 
L 263.91853 173.727325 
L 264.087102 174.434883 
L 264.171387 174.153864 
L 264.255673 174.764196 
L 264.50853 172.39759 
L 265.014244 163.934365 
L 265.098529 163.962454 
L 265.182815 163.792125 
L 265.267101 163.339845 
L 266.194243 148.84422 
L 266.278529 149.396092 
L 266.531386 148.279084 
L 267.205671 132.560223 
L 267.289957 132.391633 
L 267.542814 128.126047 
L 267.964242 121.748099 
L 268.469956 109.456557 
L 269.312812 93.105299 
L 269.818526 81.502807 
L 270.239955 76.673172 
L 270.661383 66.599723 
L 272.009953 43.603056 
L 272.684239 32.839316 
L 272.937096 29.610905 
L 273.021381 28.714318 
L 273.189953 29.469543 
L 273.527095 27.057815 
L 273.611381 24.421828 
L 273.695666 24.761091 
L 273.948523 21.039146 
L 274.032809 20.859112 
L 274.117095 21.19881 
L 274.20138 21.112795 
L 274.285666 20.977492 
L 274.79138 18.291854 
L 274.875666 18.794074 
L 274.959951 18.558774 
L 275.128523 17.802455 
L 275.212808 17.924182 
L 275.297094 17.782512 
L 275.38138 16.555084 
L 275.465665 16.573673 
L 275.549951 17.21168 
L 275.634237 17.084039 
L 275.718522 16.472406 
L 275.802808 16.688716 
L 276.139951 15.767898 
L 276.308522 16.32561 
L 276.72995 21.458056 
L 276.898521 20.343756 
L 277.404235 24.540101 
L 277.488521 24.007996 
L 277.741378 25.570511 
L 277.909949 24.973984 
L 278.162806 29.76569 
L 278.415663 32.892805 
L 279.005663 41.785441 
L 279.764234 53.156197 
L 279.932805 54.837048 
L 280.691376 71.374141 
L 281.112804 77.980938 
L 281.19709 77.946808 
L 281.78709 93.185149 
L 282.292804 103.545995 
L 282.882803 114.216755 
L 282.967089 114.575044 
L 283.219946 118.013515 
L 283.304231 118.111693 
L 283.72566 127.17304 
L 284.062802 135.519972 
L 284.147088 135.400348 
L 284.484231 140.363431 
L 285.327087 155.851723 
L 285.411373 156.552068 
L 285.579944 158.60546 
L 285.66423 158.303035 
L 286.085658 163.156389 
L 286.507086 170.092938 
L 286.591372 171.014708 
L 286.675658 170.510467 
L 286.844229 171.488082 
L 287.0128 171.05696 
L 287.434229 179.196098 
L 287.6028 180.143137 
L 287.771371 180.922933 
L 288.024228 177.540648 
L 288.277085 176.776775 
L 288.614228 179.116446 
L 288.782799 181.043332 
L 288.95137 181.459713 
L 289.204227 179.909383 
L 289.288513 179.214674 
L 289.625656 180.940525 
L 289.709941 180.781995 
L 289.878513 179.400749 
L 290.215655 175.719085 
L 290.299941 175.526394 
L 290.637084 172.372048 
L 291.311369 166.661712 
L 291.395654 164.83869 
L 291.47994 164.934343 
L 291.564226 164.333668 
L 291.648511 164.894256 
L 291.817083 163.514918 
L 291.901368 163.476795 
L 293.249939 136.460945 
L 293.502796 133.10998 
L 294.514224 114.034235 
L 294.767081 108.06199 
L 295.019938 104.352172 
L 296.368508 79.372294 
L 296.874222 72.744603 
L 297.211365 62.101307 
L 297.632793 54.549345 
L 299.318506 28.992797 
L 299.739935 26.490281 
L 299.82422 26.180617 
L 300.077077 22.292587 
L 300.245648 20.830781 
L 300.329934 20.704703 
L 300.41422 19.985967 
L 300.498505 18.205235 
L 300.582791 18.451441 
L 300.835648 19.653547 
L 300.919934 19.554625 
L 301.004219 19.993262 
L 301.088505 19.959225 
L 301.594219 13.615461 
L 301.678505 12.93487 
L 301.76279 13.346697 
L 301.847076 12.983908 
L 302.015647 13.918114 
L 302.099933 13.779779 
L 302.35279 11.859366 
L 302.437076 11.777605 
L 302.689933 14.00834 
L 302.94279 17.524045 
L 303.027075 17.109336 
L 303.111361 18.409482 
L 303.195646 18.083553 
L 303.279932 18.650988 
L 303.364218 18.249683 
L 303.70136 20.146983 
L 303.785646 19.819365 
L 304.038503 21.576287 
L 304.29136 28.281339 
L 304.459931 30.214428 
L 304.544217 29.957729 
L 304.628503 29.038217 
L 305.134217 34.669552 
L 305.471359 42.615762 
L 305.639931 44.068735 
L 305.892788 48.504004 
L 305.977073 48.718491 
L 306.22993 51.146779 
L 306.314216 51.394591 
L 306.482787 53.734948 
L 307.578501 80.710986 
L 307.662786 81.083099 
L 308.589929 99.100789 
L 308.674214 99.224257 
L 309.011357 105.781176 
L 309.095642 105.828262 
L 310.359927 133.602442 
L 310.444213 133.841921 
L 310.528499 134.682144 
L 311.202784 149.111309 
L 311.28707 149.778538 
L 311.371355 149.750342 
L 311.455641 150.037644 
L 311.708498 153.59072 
L 311.961355 157.059647 
L 312.214212 162.653615 
L 312.298497 162.64078 
L 312.551354 166.825818 
L 312.63564 167.286899 
L 312.719926 168.944562 
L 312.804211 168.803087 
L 313.394211 175.280155 
L 313.562782 175.103428 
L 313.815639 176.186182 
L 314.068496 180.419624 
L 314.152782 180.878078 
L 314.321353 182.451587 
L 314.742782 184.977506 
L 314.995638 186.571908 
L 315.079924 185.73665 
L 315.16421 185.952637 
L 315.248495 186.91481 
L 315.332781 186.825915 
L 315.669924 184.094943 
L 315.754209 184.297578 
L 316.007066 182.277835 
L 316.175638 183.09747 
L 316.259923 183.522546 
L 316.344209 182.900287 
L 316.51278 180.270268 
L 316.681352 179.175657 
L 316.934209 176.626291 
L 317.018494 177.42699 
L 317.271351 176.018606 
L 317.355637 175.503215 
L 317.608494 171.416178 
L 317.777065 169.938869 
L 317.945636 168.551138 
L 318.872779 156.749502 
L 318.957064 156.345548 
L 320.558492 127.755063 
L 320.727063 125.707675 
L 321.401348 109.384347 
L 322.665633 82.381669 
L 322.91849 76.454766 
L 323.339919 71.39905 
L 323.424204 71.380485 
L 325.44706 35.215455 
L 325.531346 35.197043 
L 326.03706 28.191613 
L 326.205631 27.707138 
L 326.627059 23.612905 
L 326.879916 20.39088 
L 326.964202 20.619138 
L 327.048487 19.298765 
L 327.132773 19.683869 
L 327.217059 19.907056 
L 327.301344 19.170296 
L 327.38563 19.210037 
L 327.469916 18.865832 
L 327.638487 16.872824 
L 327.891344 15.979847 
L 327.97563 15.046592 
L 328.059915 15.185233 
L 328.144201 15.208815 
L 328.312772 14.838124 
L 328.397058 16.068655 
L 328.649915 13.782713 
L 328.734201 14.39748 
L 328.818486 14.0418 
L 328.902772 14.202989 
L 328.987058 13.475098 
L 329.408486 17.987968 
L 329.492772 16.708003 
L 329.577057 16.867841 
L 329.661343 16.371135 
L 329.9142 17.264496 
L 329.998485 17.357357 
L 330.251342 20.187085 
L 330.504199 23.025205 
L 330.757056 25.489663 
L 330.841342 25.57594 
L 331.094199 28.405855 
L 331.684199 35.02816 
L 332.695626 51.951096 
L 333.032769 57.416868 
L 333.285626 61.734751 
L 334.044197 73.256753 
L 334.212768 77.383489 
L 334.718482 89.234847 
L 334.802768 90.199358 
L 335.224196 100.864107 
L 335.392768 103.322149 
L 335.898481 114.183372 
L 336.31991 122.19966 
L 336.657052 129.130405 
L 336.909909 133.170082 
L 336.994195 133.215514 
L 337.078481 133.687238 
L 337.921337 150.901112 
L 338.005623 151.262742 
L 338.427051 157.516704 
L 338.679908 158.111126 
L 339.017051 162.021792 
L 339.522765 170.761404 
L 339.775622 175.234067 
L 339.859907 174.765013 
L 339.944193 175.184952 
L 340.028479 174.176325 
L 340.281336 176.822233 
L 340.365621 175.897776 
L 340.449907 175.919037 
L 340.618478 179.396022 
L 340.78705 179.892506 
L 340.871335 179.003439 
L 340.955621 179.263005 
L 341.039907 179.428011 
L 341.208478 181.401531 
L 341.292764 181.452756 
L 341.714192 183.678438 
L 341.798477 183.668428 
L 341.882763 183.994677 
L 342.051334 183.787728 
L 342.304191 181.186163 
L 342.388477 181.279424 
L 342.557048 180.3604 
L 342.641334 181.092725 
L 343.062762 178.35897 
L 343.231334 176.110255 
L 343.315619 175.376158 
L 343.399905 175.53055 
L 343.484191 175.525929 
L 343.568476 175.305347 
L 343.652762 175.521957 
L 343.821333 173.551878 
L 343.905619 173.916282 
L 344.07419 172.805323 
L 344.917047 158.615989 
L 345.169904 154.465663 
L 345.591332 150.309388 
L 345.675618 150.293857 
L 346.181332 142.487844 
L 346.60276 133.700736 
L 346.939903 127.078119 
L 347.108474 127.344271 
L 347.19276 126.702976 
L 348.035616 107.634943 
L 348.119902 107.117114 
L 349.215615 82.110771 
L 349.384187 79.992432 
L 349.805615 68.780457 
L 349.974186 67.19683 
L 350.142758 63.116301 
L 350.227043 63.345845 
L 350.311329 62.937717 
L 350.564186 59.685206 
L 350.648471 58.707884 
L 351.238471 44.231586 
L 351.912756 34.544236 
L 352.081328 34.809377 
L 352.165613 34.633289 
L 352.671327 28.70535 
L 352.924184 25.234191 
L 353.345612 21.735373 
L 354.019898 15.160657 
L 354.104183 16.426431 
L 354.272755 15.033013 
L 354.441326 14.4471 
L 354.609897 14.316019 
L 354.694183 14.088817 
L 354.778469 14.240291 
L 354.862754 14.155658 
L 355.031326 13.574276 
L 355.115611 14.522546 
L 355.199897 14.346909 
L 355.284183 14.083597 
L 355.705611 16.675643 
L 355.789897 16.48855 
L 356.042754 13.728767 
L 356.127039 13.748897 
L 356.379896 15.975766 
L 356.801324 24.825266 
L 356.969896 24.04361 
L 357.054181 24.135841 
L 357.138467 24.354671 
L 357.47561 27.975251 
L 357.897038 35.095167 
L 358.318466 39.915327 
L 358.402752 39.66445 
L 358.571323 42.740358 
L 358.655609 43.036678 
L 359.41418 55.137434 
L 359.667037 61.094936 
L 359.919894 63.94809 
L 360.257036 70.612911 
L 360.678465 78.799723 
L 360.847036 82.175595 
L 361.437036 95.088603 
L 361.774178 103.307384 
L 362.027035 107.789244 
L 362.279892 111.008114 
L 363.038463 128.08751 
L 363.122749 127.793993 
L 363.544177 134.912196 
L 363.797034 140.738176 
L 364.049891 145.501378 
L 364.134177 146.088904 
L 364.639891 152.641598 
L 364.724176 152.985829 
L 365.398461 164.331541 
L 365.904175 168.79982 
L 366.241318 175.415291 
L 366.325604 175.111582 
L 366.409889 175.502723 
L 366.494175 174.867349 
L 366.578461 175.638038 
L 366.662746 175.46388 
L 366.831318 175.448706 
L 367.252746 179.767156 
L 367.337032 180.029207 
L 367.674174 182.550152 
L 367.75846 181.635426 
L 367.842746 181.992327 
L 367.927031 181.836741 
L 368.011317 181.351267 
L 368.179888 183.528074 
L 368.264174 183.693516 
L 368.432745 183.06647 
L 368.517031 183.805668 
L 368.601316 183.711512 
L 368.854173 181.803338 
L 368.938459 180.262656 
L 369.10703 182.583361 
L 369.275602 181.109381 
L 369.949887 176.421861 
L 370.034173 177.171112 
L 370.371315 173.308661 
L 370.624172 172.045533 
L 370.877029 170.247395 
L 371.467029 158.337211 
L 371.719886 155.208517 
L 371.972743 151.634991 
L 372.057028 151.76397 
L 372.647028 140.004446 
L 372.899885 135.17314 
L 373.321313 130.349048 
L 374.248455 110.633493 
L 374.332741 110.093901 
L 375.175598 93.267384 
L 375.259883 92.560063 
L 375.934169 77.71932 
L 376.355597 71.379319 
L 378.04131 40.001236 
L 378.125596 40.500472 
L 378.294167 38.173511 
L 378.378453 38.535455 
L 378.547024 35.266199 
L 378.884167 27.999087 
L 378.968452 27.061242 
L 379.052738 27.275076 
L 379.137024 27.591591 
L 379.221309 26.27953 
L 379.389881 27.519287 
L 379.811309 20.075115 
L 379.895594 20.309396 
L 380.148451 18.999661 
L 380.232737 18.916443 
L 380.401308 20.115634 
L 380.485594 19.848091 
L 381.075594 14.298348 
L 381.159879 14.558752 
L 381.244165 14.858353 
L 381.497022 17.320126 
L 381.581308 17.41401 
L 381.665593 17.714819 
L 382.002736 14.789546 
L 382.087022 14.10089 
L 382.255593 14.768322 
L 382.339879 14.642927 
L 382.424164 14.808292 
L 382.592736 16.43851 
L 382.761307 16.801562 
L 383.014164 20.023347 
L 383.098449 20.738479 
L 383.267021 23.097085 
L 383.351306 23.205835 
L 383.604163 26.585675 
L 383.772735 25.399979 
L 384.025592 28.088625 
L 384.194163 30.701222 
L 385.205591 45.815438 
L 385.711305 50.794325 
L 386.132733 60.211582 
L 386.722733 69.111554 
L 386.97559 73.754523 
L 387.397018 80.883995 
L 387.481304 81.219506 
L 388.071303 96.256631 
L 388.492732 103.98338 
L 388.745588 110.345026 
L 389.419874 122.588785 
L 389.757016 127.545908 
L 390.768444 145.089488 
L 391.105587 149.298537 
L 391.44273 156.53768 
L 391.611301 157.930466 
L 391.695586 157.698921 
L 392.538443 171.045646 
L 392.7913 173.61221 
L 392.959871 173.859686 
L 393.044157 173.721024 
L 393.128443 173.248162 
L 393.549871 175.517921 
L 393.634157 176.751539 
L 393.718442 176.503952 
L 393.802728 176.512297 
L 394.224156 183.058604 
L 394.392728 184.263962 
L 394.477013 184.419807 
L 394.814156 179.306008 
L 394.898441 180.031048 
L 395.067013 179.203507 
L 395.151298 179.422849 
L 395.404155 181.145433 
L 395.488441 180.481219 
L 395.572727 178.192028 
L 395.657012 178.387509 
L 395.741298 178.612424 
L 396.162726 177.258603 
L 396.247012 178.683012 
L 396.331298 178.642275 
L 396.415583 178.256894 
L 396.837012 170.467489 
L 397.005583 169.540882 
L 397.089869 169.622546 
L 397.342726 171.806373 
L 397.427011 171.177537 
L 398.438439 150.824394 
L 399.281296 142.242146 
L 399.702724 131.469362 
L 400.208438 119.63893 
L 400.54558 116.368468 
L 401.051294 107.357239 
L 401.13558 106.487398 
L 401.72558 91.323682 
L 401.809865 90.435586 
L 402.062722 86.302297 
L 402.231294 82.735068 
L 402.399865 79.335242 
L 402.484151 78.714169 
L 403.327007 59.452223 
L 403.495578 58.454995 
L 403.748435 54.782631 
L 404.422721 41.378768 
L 404.507006 40.863762 
L 404.844149 36.871063 
L 404.928435 36.424394 
L 405.181292 34.20591 
L 405.265577 33.918489 
L 405.349863 34.269968 
L 405.518434 32.298444 
L 405.855577 25.756768 
L 406.108434 23.777128 
L 406.19272 23.853979 
L 406.277005 24.103674 
L 406.361291 23.612254 
L 406.95129 15.747863 
L 407.035576 16.194726 
L 407.119862 15.280853 
L 407.372719 16.169843 
L 407.457004 15.882253 
L 407.709861 18.838764 
L 407.794147 19.281159 
L 407.962718 18.307767 
L 408.047004 18.785329 
L 408.215575 16.869639 
L 408.468432 15.267901 
L 408.805575 17.665891 
L 408.889861 17.763616 
L 409.058432 19.362065 
L 409.142717 18.879097 
L 409.311289 18.436197 
L 409.47986 19.317466 
L 409.985574 26.059518 
L 410.407002 28.775098 
L 410.828431 35.391325 
L 410.912716 35.82722 
L 412.598429 60.63141 
L 413.441286 75.244076 
L 413.525572 75.618982 
L 413.862714 82.454347 
L 414.199857 92.181318 
L 414.368428 94.921243 
L 414.705571 99.132218 
L 415.632713 123.653488 
L 415.716999 124.045176 
L 415.88557 127.104317 
L 416.728427 138.472347 
L 417.065569 143.78654 
L 417.234141 146.786751 
L 418.076997 163.051512 
L 418.245568 164.117155 
L 418.498425 167.283711 
L 418.582711 168.458033 
L 418.666997 168.006316 
L 418.751282 168.245601 
L 419.594139 177.665263 
L 419.678425 176.953734 
L 419.931282 179.687502 
L 420.099853 181.95244 
L 420.268424 182.564414 
L 420.35271 183.902263 
L 420.436996 183.530694 
L 420.521281 183.716631 
L 420.774138 185.303465 
L 420.858424 185.759999 
L 420.942709 185.296489 
L 421.026995 185.989531 
L 421.195566 184.988545 
L 421.279852 185.006152 
L 421.364138 184.48085 
L 421.448423 182.972884 
L 421.532709 183.035921 
L 421.954137 178.780705 
L 422.038423 179.866095 
L 422.122709 179.149931 
L 422.206994 179.642167 
L 422.544137 177.669694 
L 422.712708 176.481941 
L 422.796994 176.373928 
L 422.88128 175.977856 
L 423.049851 174.894751 
L 423.218422 174.266746 
L 423.386994 173.961631 
L 423.639851 169.378586 
L 423.892707 168.809598 
L 424.651278 156.38004 
L 424.81985 155.557722 
L 425.072707 150.575533 
L 425.662706 138.205943 
L 425.746992 137.8481 
L 425.999849 134.049896 
L 426.16842 131.8642 
L 426.421277 127.051 
L 427.264134 110.846384 
L 427.601276 105.322344 
L 428.359847 86.250138 
L 428.444133 85.598812 
L 429.202704 72.231944 
L 429.28699 71.597152 
L 430.129846 53.753811 
L 430.298417 52.440687 
L 430.63556 46.389747 
L 430.719846 46.143255 
L 431.478417 28.797342 
L 431.646988 26.926724 
L 431.731274 27.758047 
L 432.068416 25.426176 
L 432.236988 24.724099 
L 432.321273 25.019275 
L 432.995558 16.23681 
L 433.079844 16.024756 
L 433.248415 17.786644 
L 433.332701 17.623201 
L 433.416987 17.208967 
L 433.754129 12.269459 
L 433.922701 11.377413 
L 434.006986 11.410232 
L 434.259843 11.684335 
L 434.428415 10.180953 
L 434.5127 10.200374 
L 435.018414 16.718385 
L 435.1027 16.9101 
L 435.524128 14.272384 
L 435.692699 14.844747 
L 435.861271 16.896204 
L 435.945556 17.150781 
L 436.282699 20.293377 
L 436.366985 20.25125 
L 436.45127 20.177898 
L 436.619842 21.798519 
L 436.704127 22.69994 
L 436.872699 25.076515 
L 437.04127 26.78797 
L 437.378413 33.633309 
L 437.884127 41.000767 
L 438.136984 45.224365 
L 438.305555 46.879721 
L 438.642697 51.507295 
L 438.726983 51.056031 
L 438.811269 50.799192 
L 439.064126 54.417069 
L 439.991268 77.249308 
L 440.328411 81.889776 
L 440.91841 93.036661 
L 442.519838 126.021431 
L 442.772695 129.865751 
L 443.109837 137.745514 
L 443.784123 149.349728 
L 444.374122 159.134291 
L 444.711265 164.673429 
L 444.879836 164.459629 
L 444.964122 163.667256 
L 445.216979 165.887972 
L 445.806978 174.870166 
L 446.144121 181.16811 
L 446.312692 181.214824 
L 446.396978 182.331318 
L 446.481264 182.063024 
L 446.565549 181.496958 
L 446.986978 183.655506 
L 447.071263 185.097788 
L 447.155549 184.290031 
L 447.408406 186.009358 
L 447.492691 185.838012 
L 447.576977 185.760672 
L 447.661263 186.460875 
L 447.745548 186.127409 
L 447.91412 186.892807 
L 447.998405 186.765921 
L 448.251262 184.858444 
L 448.504119 183.368694 
L 448.756976 182.719207 
L 448.841262 182.529397 
L 448.925548 182.851962 
L 449.094119 181.633084 
L 449.178405 182.32658 
L 449.26269 182.210952 
L 449.346976 182.270917 
L 449.431262 182.984304 
L 449.515547 182.846501 
L 449.85269 178.171689 
L 449.936976 177.053779 
L 450.105547 173.342769 
L 450.442689 170.819959 
L 450.695546 167.71565 
L 450.779832 167.261568 
L 452.128403 142.427181 
L 452.38126 139.785244 
L 452.465545 139.902698 
L 452.549831 138.842966 
L 452.971259 128.407186 
L 454.066973 107.498126 
L 454.235544 105.746654 
L 454.741258 93.522438 
L 457.185542 46.768049 
L 457.269828 47.929626 
L 457.438399 45.337864 
L 457.775542 37.599675 
L 457.859827 37.135089 
L 457.944113 35.648724 
L 458.028399 35.722045 
L 458.19697 35.403641 
L 458.281256 35.97839 
L 459.124112 23.918181 
L 459.54554 20.001479 
L 459.966969 18.530578 
L 459.966969 18.530578 
" clip-path="url(#p6172967356)" style="fill: none; stroke: #7f7f7f; stroke-opacity: 0.7; stroke-width: 0.9; stroke-linecap: square"/>
   </g>
   <g id="patch_7">
    <path d="M 38.622969 194.4 
L 38.622969 2.88 
" style="fill: none; stroke: #000000; stroke-width: 0.8; stroke-linejoin: miter; stroke-linecap: square"/>
   </g>
   <g id="patch_8">
    <path d="M 459.966969 194.4 
L 459.966969 2.88 
" style="fill: none; stroke: #000000; stroke-width: 0.8; stroke-linejoin: miter; stroke-linecap: square"/>
   </g>
   <g id="patch_9">
    <path d="M 38.622969 194.4 
L 459.966969 194.4 
" style="fill: none; stroke: #000000; stroke-width: 0.8; stroke-linejoin: miter; stroke-linecap: square"/>
   </g>
  </g>
 </g>
 <defs>
  <clipPath id="p6172967356">
   <rect x="38.622969" y="2.88" width="421.344" height="191.52"/>
  </clipPath>
 </defs>
</svg>
